<?xml version="1.0" standalone="no"?>
<!DOCTYPE svg PUBLIC "-//W3C//DTD SVG 20010904//EN"
 "http://www.w3.org/TR/2001/REC-SVG-20010904/DTD/svg10.dtd">
<svg version="1.0" xmlns="http://www.w3.org/2000/svg"
 width="16.000000pt" height="16.000000pt" viewBox="0 0 16.000000 16.000000"
 preserveAspectRatio="xMidYMid meet">
<metadata>
Created by potrace 1.11, written by Peter Selinger 2001-2013
</metadata>
<g transform="translate(0.000000,16.000000) scale(0.008377,-0.008377)"
fill="#000000" stroke="none">
<path d="M795 1856 c-289 -47 -558 -239 -676 -483 -19 -37 -37 -70 -40 -73 -4
-3 -10 -25 -14 -49 -3 -23 -10 -53 -14 -65 -4 -11 -7 -28 -6 -36 1 -8 -2 -19
-6 -25 -19 -28 -31 -198 -26 -357 5 -144 9 -173 25 -196 11 -15 36 -60 56
-100 28 -56 59 -94 134 -168 182 -180 235 -216 361 -249 68 -17 203 -15 284 4
49 12 53 16 39 45 -16 36 -68 71 -150 100 -40 14 -90 37 -110 51 -20 14 -45
25 -55 25 -42 0 -170 79 -225 140 -34 37 -98 147 -127 218 -57 141 -75 309
-49 471 15 96 51 211 66 211 5 0 46 35 91 78 45 43 118 105 162 137 44 32 92
69 106 82 18 16 51 29 100 40 41 8 80 20 88 26 21 18 155 18 251 0 97 -17 248
-84 320 -142 156 -124 263 -278 276 -393 4 -32 9 -56 13 -54 3 2 7 -33 7 -77
1 -45 3 -104 4 -132 4 -57 -8 -162 -21 -187 -5 -9 -9 -25 -8 -35 0 -12 5 -9
13 11 14 32 26 18 18 -21 -6 -33 -80 -113 -97 -106 -9 3 -15 -1 -15 -11 0 -8
-13 -22 -29 -30 -43 -23 -141 -119 -141 -140 0 -22 24 -16 100 28 30 17 65 34
78 38 21 6 23 4 18 -18 -4 -13 -2 -24 3 -24 16 0 100 90 127 136 54 91 105
265 96 326 -3 18 -4 44 -4 58 7 185 -3 273 -43 372 -55 135 -134 250 -249 361
-90 87 -151 128 -249 167 -123 49 -338 69 -482 46z"/>
<path d="M1786 1487 c3 -10 9 -15 12 -12 3 3 0 11 -7 18 -10 9 -11 8 -5 -6z"/>
<path d="M807 1383 c4 -10 13 -27 20 -39 12 -19 10 -24 -20 -50 -44 -39 -72
-81 -85 -126 -10 -37 -10 -38 16 -39 45 -1 426 -1 450 0 19 1 22 5 17 24 -16
51 -41 92 -81 132 l-43 42 20 32 c21 35 23 41 11 41 -4 0 -16 -16 -27 -36 -16
-31 -22 -34 -44 -28 -33 10 -129 10 -162 0 -22 -6 -28 -3 -44 28 -20 37 -39
50 -28 19z m63 -148 c0 -16 -27 -27 -36 -14 -3 5 -3 16 0 24 6 17 36 9 36 -10z
m220 -1 c0 -8 -9 -14 -20 -14 -22 0 -28 26 -7 33 16 6 27 -1 27 -19z"/>
<path d="M1866 1315 c7 -31 20 -52 28 -44 2 2 -4 20 -15 39 -19 35 -19 35 -13
5z"/>
<path d="M1891 1324 c0 -11 3 -14 6 -6 3 7 2 16 -1 19 -3 4 -6 -2 -5 -13z"/>
<path d="M619 1107 c-24 -12 -24 -15 -27 -154 -2 -118 0 -144 13 -157 20 -19
45 -20 69 -3 16 12 19 30 19 149 0 74 -3 140 -7 146 -14 24 -42 31 -67 19z"/>
<path d="M1264 1110 c-12 -5 -25 -14 -29 -21 -5 -6 -8 -73 -8 -147 0 -120 2
-137 18 -149 25 -17 50 -17 70 3 13 13 15 39 13 156 -3 128 -5 142 -23 153
-13 9 -28 10 -41 5z"/>
<path d="M721 1100 c-13 -9 -7 -378 7 -392 6 -6 26 -13 44 -14 18 -1 36 -3 39
-3 4 -1 7 -32 6 -71 0 -78 11 -100 53 -100 41 0 50 19 51 102 l1 74 36 -1 37
0 2 -67 c3 -84 14 -108 52 -108 42 0 53 21 55 102 l2 73 37 0 c20 0 42 6 49
13 16 16 19 391 3 393 -39 4 -468 3 -474 -1z"/>
<path d="M1888 1084 c-4 -5 0 -18 8 -29 15 -20 17 -12 5 19 -4 11 -10 15 -13
10z"/>
<path d="M1876 985 c-3 -8 -1 -15 4 -15 6 0 10 7 10 15 0 8 -2 15 -4 15 -2 0
-6 -7 -10 -15z"/>
<path d="M1853 814 c-12 -26 -12 -26 7 -9 20 18 26 35 13 35 -5 0 -13 -12 -20
-26z"/>
<path d="M1605 580 c-10 -11 -16 -22 -13 -25 3 -3 13 6 22 20 20 30 16 32 -9
5z"/>
<path d="M1528 301 c-21 -14 -37 -30 -38 -34 0 -10 57 23 72 41 19 23 4 20
-34 -7z"/>
<path d="M952 194 c10 -10 20 -16 22 -13 3 3 -5 11 -17 18 -21 13 -21 12 -5
-5z"/>
</g>
</svg>
